/* XPM */
static char *f4698e5180da43adb68fc0d53b4568fbm33rU8gV3exThaoe[] = {
/* columns rows colors chars-per-pixel */
"32 32 192 2 ",
"   c None",
".  c #0A0100",
"X  c #0F0006",
"o  c #05020D",
"O  c #0B0109",
"+  c #0B000D",
"@  c #0C040F",
"#  c #190003",
"$  c #15010D",
"%  c #1D030C",
"&  c #040112",
"*  c #000511",
"=  c #000417",
"-  c #050714",
";  c #0C0013",
":  c #000118",
">  c #03001F",
",  c #06031E",
"<  c #0A001B",
"1  c #0C0018",
"2  c #0E001A",
"3  c #0F031B",
"4  c #0F021C",
"5  c #0C011F",
"6  c #0E001E",
"7  c #030A1D",
"8  c #130617",
"9  c #110E17",
"0  c #200000",
"q  c #2F0700",
"w  c #2F071F",
"e  c #020120",
"r  c #060320",
"t  c #000621",
"y  c #050124",
"u  c #060024",
"i  c #070125",
"p  c #040027",
"a  c #0D0022",
"s  c #080027",
"d  c #0B0425",
"f  c #04072A",
"g  c #0D002B",
"h  c #0E0729",
"j  c #0A012C",
"k  c #100023",
"l  c #190721",
"z  c #110823",
"x  c #170B23",
"c  c #140B26",
"v  c #16042C",
"b  c #1A0028",
"n  c #1A002A",
"m  c #1C002F",
"M  c #0D0131",
"N  c #0C0435",
"B  c #0A0039",
"V  c #0B0438",
"C  c #0E003F",
"Z  c #170535",
"A  c #210629",
"S  c #002026",
"D  c #06323F",
"F  c #212838",
"G  c #312D3B",
"H  c #460300",
"J  c #581100",
"K  c #46201D",
"L  c #4C202F",
"P  c #6A3231",
"I  c #1D413D",
"U  c #58492A",
"Y  c #080B40",
"T  c #00195B",
"R  c #073245",
"E  c #600048",
"W  c #1E6044",
"Q  c #425A4C",
"!  c #99371A",
"~  c #843026",
"^  c #803329",
"/  c #843B28",
"(  c #A4293E",
")  c #D43E19",
"_  c #EC251E",
"`  c #EC3C15",
"'  c #E82D24",
"]  c #A8492B",
"[  c #A35F3A",
"{  c #B6543B",
"}  c #996335",
"|  c #936833",
" . c #A76B39",
".. c #EF460B",
"X. c #F25C0F",
"o. c #E74014",
"O. c #F94B19",
"+. c #FC5713",
"@. c #FF5913",
"#. c #FD5B12",
"$. c #FA5B17",
"%. c #D26115",
"&. c #EF6F0E",
"*. c #F9630C",
"=. c #F8630F",
"-. c #F46C09",
";. c #E6700C",
":. c #EE6213",
">. c #EF6316",
",. c #FF6316",
"<. c #F36F1C",
"1. c #FE6B1D",
"2. c #ED7612",
"3. c #F77016",
"4. c #FD7B1B",
"5. c #D14921",
"6. c #C55223",
"7. c #D7512E",
"8. c #CB4B32",
"9. c #F24523",
"0. c #F94522",
"q. c #E95225",
"w. c #FB5022",
"e. c #FF5A2D",
"r. c #EE4D30",
"t. c #DC743F",
"y. c #E06E28",
"u. c #FA6620",
"i. c #F76728",
"p. c #F2672E",
"a. c #E5702A",
"s. c #EA7128",
"d. c #FA6233",
"f. c #FF6333",
"g. c #E3723A",
"h. c #F17734",
"j. c #FF713F",
"k. c #C0794D",
"l. c #428748",
"z. c #5D8058",
"x. c #649E4A",
"c. c #FB890C",
"v. c #F58215",
"b. c #F58E15",
"n. c #F48319",
"m. c #ED931B",
"M. c #F9A217",
"N. c #FFAF1F",
"B. c #C3812D",
"V. c #C39C37",
"C. c #F68F26",
"Z. c #FF802F",
"A. c #F69222",
"S. c #FF9422",
"D. c #F49E25",
"F. c #F59328",
"G. c #F7952A",
"H. c #FF8034",
"J. c #FF8F31",
"K. c #FB8D34",
"L. c #FFAB2D",
"P. c #FCB424",
"I. c #F7BF20",
"U. c #F7A736",
"Y. c #FFA130",
"T. c #FDA331",
"R. c #FFA534",
"E. c #F8AA3B",
"W. c #FAB131",
"Q. c #FDB932",
"!. c #FCCD39",
"~. c #CD9148",
"^. c #EE8E42",
"/. c #EF844C",
"(. c #E08B55",
"). c #D6A654",
"_. c #FCAE42",
"`. c #FAB142",
"'. c #F3B842",
"]. c #FEB942",
"[. c #F8BC44",
"{. c #F7BB49",
"}. c #EDB45A",
"|. c #DD9662",
" X c #E5A961",
".X c #EEBB6A",
"XX c #FFB060",
"oX c #FCC048",
"OX c #FFC851",
"+X c #EDC96B",
"@X c #F7E373",
"#X c #F8D68E",
/* pixels */
"                                                                ",
"                                                                ",
"                              5.                                ",
"                                                                ",
"                                5.                              ",
"                        %.                                      ",
"                              r.t.                              ",
"                              9.>.                              ",
"                          0.  q.#.  #Xd.                        ",
"                            7.H.$.j._                           ",
"                          ` p.XX:.+.'                           ",
"                        ) D.R.;.<.*.o.                          ",
"                        X.T.E.2.&.*.#...                        ",
"                    i.  -.Q.].F.v.4.3.O.                        ",
"                      n.M.P.L.OXb.c.1.,.e.                      ",
"                      K.W.X 0 [. .: g.u.f.                      ",
"                      Z.'.; + {.} O h.w.                        ",
"                        oX(.J _.^.6.J./.                        ",
"                        5 `.U.T.G.S.A.L                         ",
"                        % m / ] { ^ 3 -                         ",
"                      5 I.b 8 u r 3 ! a.f                       ",
"                      5 @Xk.| A l w ~ z a                       ",
"                    5 +Xu 8.( E x P c 5 s.@                     ",
"                    5 ).C T W x.l.I z.k C.q   K                 ",
"                  5 !.}.G V.B.Q S R Y Z N.y.3                   ",
"                  5 s * U ~.H u V D F b g N                     ",
"                        t e v     = > <                         ",
"                        , [ .     7 m.,                         ",
"                      ,  X# o     & .X|.$                       ",
"                      d , h 9     u B M j                       ",
"                                                                ",
"                                                                "
};
